<svg id="Camada_1" data-name="Camada 1" xmlns="http://www.w3.org/2000/svg" viewBox="0 0 800 800"><defs><style>.cls-1{fill:#e0e0e0;}.cls-2{fill:#bdbdbd;}.cls-3{fill:#32393f;}.cls-4{fill:#6b0;}.cls-5{fill:#ff641a;}.cls-6{fill:#fdbf00;}.cls-7{fill:#4bb9ec;}.cls-8{fill:#fff;}.cls-9{fill:#575f64;}</style></defs><title>app-store</title><path class="cls-1" d="M800,23.44V776.56A23.21,23.21,0,0,1,776.56,800H23.44A23.21,23.21,0,0,1,0,776.56V23.44A23.21,23.21,0,0,1,23.44,0H776.56A23.21,23.21,0,0,1,800,23.44Zm0,0"/><path class="cls-2" d="M800,23.44V776.56A23.21,23.21,0,0,1,776.56,800H400V0H776.56A23.21,23.21,0,0,1,800,23.44Zm0,0"/><path class="cls-3" d="M423.44,423.44V577.8l53.74,40L651,570.93l102.18,6.87V423.44Zm0,0"/><path class="cls-4" d="M651,477.18a23.43,23.43,0,0,0-33.15,0l-77.17,77.18-30.31-30.31a23.44,23.44,0,0,0-33.14,0L423.44,577.8V753.12H753.13V577.8Zm0,0"/><rect class="cls-5" x="46.88" y="46.88" width="329.69" height="329.69"/><path class="cls-1" d="M131.13,326.92a23.43,23.43,0,0,1-12.38-20.67V118.75a23.43,23.43,0,0,1,36.44-19.5L295.81,193a23.43,23.43,0,0,1,0,39L155.19,325.75a23.44,23.44,0,0,1-24.06,1.17Zm0,0"/><rect class="cls-6" x="423.44" y="46.88" width="329.69" height="329.69"/><path class="cls-3" d="M587.5,282.81H493.75a23.43,23.43,0,0,1-23.44-23.44V165.62a23.43,23.43,0,0,1,23.44-23.43H587.5a23.43,23.43,0,0,1,23.44,23.43v93.75a23.43,23.43,0,0,1-23.44,23.44Zm0,0"/><rect class="cls-7" x="46.88" y="423.44" width="329.69" height="329.69"/><path class="cls-1" d="M212.5,657.81a23.43,23.43,0,0,1-23.44-23.43V493.75a23.46,23.46,0,0,1,33.93-21l93.75,46.88a23.44,23.44,0,1,1-21,41.93l-59.82-29.91v102.7a23.43,23.43,0,0,1-23.44,23.43Zm0,0"/><path class="cls-8" d="M165.62,704.69a70.32,70.32,0,1,1,70.32-70.31,70.4,70.4,0,0,1-70.32,70.31Zm0,0"/><path class="cls-9" d="M693.57,98.82a23.35,23.35,0,0,0-22.81-1l-106.7,44.41V282.81l106.7,44.41a23.46,23.46,0,0,0,33.93-21V118.75a23.43,23.43,0,0,0-11.12-19.93Zm0,0"/></svg>