<?xml version="1.0" encoding="iso-8859-1"?>
<!-- Generator: Adobe Illustrator 19.0.0, SVG Export Plug-In . SVG Version: 6.00 Build 0)  -->
<svg version="1.1" id="Capa_1" xmlns="http://www.w3.org/2000/svg" xmlns:xlink="http://www.w3.org/1999/xlink" x="0px" y="0px"
	 viewBox="0 0 490 490" style="enable-background:new 0 0 490 490;" xml:space="preserve">
<g>
	<path d="M72.909,430.254c22.558,19.28,50.173,33.904,82.074,43.455c31.605,9.477,66.547,14.282,103.846,14.282
		c40.563,0,75.845-5.384,104.884-16.003c29.069-10.649,54.489-25.316,75.579-43.603c21.179-18.346,36.425-36.766,45.294-54.741
		l5.413-10.96h-61.089l-2.269,3.203c-13.748,19.414-34.927,36.217-62.913,49.936c-28.12,13.778-63.669,20.763-105.656,20.763
		c-39.346,0-75.668-6.763-107.94-20.096c-31.679-13.111-56.194-33.607-72.879-60.926c-16.803-27.556-25.331-60.97-25.331-99.315
		c0-36.721,8.602-71.626,25.569-103.75c16.833-31.879,40.874-56.691,71.441-73.747c30.745-17.145,65.212-25.836,102.452-25.836
		c32.554,0,62.676,6.889,89.535,20.474c26.607,13.459,46.866,31.59,60.214,53.896c13.363,22.343,20.14,46.717,20.14,72.442
		c0,22.024-5.28,43.729-15.706,64.492c-10.367,20.689-24.619,37.404-42.357,49.669c-16.032,11.197-25.257,13.556-30.166,13.556
		c-2.862,0-5.117-0.86-7.089-2.699c-1.854-1.75-2.684-3.559-2.684-5.725c0.044-0.934,0.712-6.303,7.267-36.44l37.745-173.396
		h-59.947l-6.081,27.356c-7.816-9.366-16.611-16.84-26.266-22.335c-32.539-18.45-69.928-15.765-107.465,8.691
		c-21.045,13.719-38.827,34.4-52.858,61.467c-13.986,26.985-21.09,54.385-21.09,81.429c0,22.128,4.657,42.772,13.822,61.356
		c9.299,18.88,21.668,33.088,36.736,42.268c28.817,17.56,60.555,18.583,90.691,1.735c9.729-5.413,18.895-12.117,27.348-20.007
		c0.86,3.396,1.884,6.199,3.055,8.454c4.078,7.816,10.441,13.867,18.924,17.99c8.068,3.93,18.494,5.917,31.012,5.917
		c37.804,0,72.924-17.456,104.395-51.879c34.927-37.967,52.635-82.097,52.635-131.165c0-34.289-8.439-66.509-25.079-95.793
		c-19.532-33.933-46.599-59.843-80.488-77.01c-33.607-17.019-71.975-25.65-114.02-25.65c-54.163,0-101.014,12.25-139.233,36.403
		c-38.249,24.182-68.148,59.45-88.852,104.81C8.587,180.107,0,219.454,0,260.172c0,36.632,7.237,71.278,21.535,102.986
		C33.043,388.356,50.321,410.929,72.909,430.254z M39.332,149.54c19.473-42.639,47.444-75.712,83.172-98.285
		c35.743-22.602,79.85-34.059,131.106-34.059c39.643,0,75.697,8.083,107.169,24.011c31.189,15.81,56.15,39.702,74.155,71.003
		c15.306,26.933,23.077,56.625,23.077,88.252c0,45.138-16.358,85.812-48.646,120.902c-28.475,31.16-59.843,46.955-93.198,46.955
		c-10.189,0-18.39-1.468-24.367-4.375c-5.562-2.714-9.522-6.437-12.102-11.39c-0.964-1.809-2.729-6.6-3.901-18.272l-1.72-17.367
		l-11.538,13.111c-10.13,11.524-21.594,20.897-34.096,27.867c-25.405,14.164-51.256,13.289-75.401-1.439
		c-12.577-7.668-23.018-19.784-31.026-36.009c-8.127-16.492-12.25-34.882-12.25-54.652c0-24.59,6.526-49.632,19.399-74.444
		c12.799-24.708,28.831-43.455,47.667-55.727c32.717-21.334,64.055-23.878,91.655-8.209c11.894,6.763,22.35,17.293,31.056,31.301
		l9.818,15.788l11.168-50.129h28.92l-33.74,154.976c-7.623,35.031-7.623,37.967-7.623,39.554c0,6.466,2.581,12.31,7.49,16.907
		c12.265,11.509,30.537,8.587,56.298-9.447c19.844-13.719,35.743-32.332,47.281-55.319c11.479-22.914,17.308-46.903,17.308-71.315
		c0-28.512-7.504-55.512-22.306-80.243c-14.831-24.797-37.166-44.871-66.383-59.65c-28.995-14.668-61.43-22.105-96.386-22.105
		c-39.851,0-76.809,9.344-109.838,27.764c-33.192,18.509-59.25,45.398-77.492,79.917c-18.123,34.326-27.319,71.619-27.319,110.839
		c0,41.178,9.269,77.247,27.556,107.235c18.39,30.122,45.323,52.68,80.043,67.036c34.126,14.104,72.405,21.253,113.739,21.253
		c44.315,0,82.119-7.504,112.33-22.306c28.787-14.104,51.063-31.456,66.294-51.597h28.016c-8.276,12.74-20.126,25.836-35.357,39.035
		c-19.695,17.07-43.544,30.804-70.862,40.815c-27.348,10.011-60.881,15.083-99.664,15.083c-35.817,0-69.29-4.583-99.486-13.63
		c-29.87-8.958-55.631-22.573-76.557-40.459c-20.897-17.871-36.855-38.694-47.415-61.83c-13.392-29.706-20.185-62.246-20.185-96.713
		C15.187,221.656,23.314,184.445,39.332,149.54z"/>
	<path d="M234.24,138.551c-11.88,0-23.196,3.011-33.637,8.936c-10.248,5.799-20.185,15.098-29.528,27.63
		c-9.24,12.362-16.729,27.534-22.261,45.086c-5.517,17.478-8.305,33.807-8.305,48.527c0,24.13,6.051,43.336,17.99,57.114
		c12.221,14.06,26.592,21.193,42.728,21.193c10.471,0,21.535-3.055,32.865-9.077c11.064-5.903,21.698-14.683,31.59-26.073
		c9.937-11.464,18.138-26.073,24.367-43.395c6.229-17.308,9.388-34.927,9.388-52.368c0-24.033-6.303-43.128-18.746-56.743
		C268.084,145.558,252.453,138.551,234.24,138.551z M275.752,263.346c-5.591,15.558-12.829,28.55-21.549,38.575
		c-8.661,9.996-17.842,17.619-27.245,22.632c-22.484,11.939-41.304,9.388-56.98-8.661c-9.477-10.93-14.282-26.8-14.282-47.163
		c0-13.17,2.551-27.956,7.593-43.959c5.028-15.921,11.731-29.566,19.948-40.57c8.098-10.834,16.448-18.746,24.857-23.5
		c8.246-4.687,16.803-6.963,26.147-6.963c13.956,0,25.48,5.191,35.238,15.884c9.803,10.73,14.772,26.377,14.772,46.502
		C284.25,231.808,281.388,247.692,275.752,263.346z"/>
</g>
<g>
</g>
<g>
</g>
<g>
</g>
<g>
</g>
<g>
</g>
<g>
</g>
<g>
</g>
<g>
</g>
<g>
</g>
<g>
</g>
<g>
</g>
<g>
</g>
<g>
</g>
<g>
</g>
<g>
</g>
</svg>
