<?xml version="1.0" encoding="utf-8"?>
<!-- Generator: Adobe Illustrator 21.1.0, SVG Export Plug-In . SVG Version: 6.00 Build 0)  -->
<svg version="1.1" id="Layer_1" xmlns="http://www.w3.org/2000/svg" xmlns:xlink="http://www.w3.org/1999/xlink" x="0px" y="0px"
	 viewBox="0 0 411 396" style="enable-background:new 0 0 411 396;" xml:space="preserve">
<style type="text/css">
	.st0{clip-path:url(#SVGID_2_);fill:#FFFFFF;}
</style>
<g>
	<g>
		<defs>
			<rect id="SVGID_1_" x="59.6" y="47.6" width="298.8" height="298.8"/>
		</defs>
		<clipPath id="SVGID_2_">
			<use xlink:href="#SVGID_1_"  style="overflow:visible;"/>
		</clipPath>
		<path class="st0" d="M193,194.4L62.4,325c-3.6,3.6-3.6,9.5,0,13.1c1.8,1.8,4.2,2.7,6.6,2.7c2.4,0,4.8-0.9,6.6-2.7l131.6-131.6
			l131.6,131.6c1.8,1.8,4.2,2.7,6.5,2.7c2.4,0,4.8-0.9,6.6-2.7c3.6-3.6,3.6-9.5,0-13.1L221.3,194.4L352,63.6c3.6-3.6,3.6-9.5,0-13.1
			c-3.6-3.6-9.5-3.6-13.1,0L207.2,182.2L75.4,50.5c-3.6-3.6-9.5-3.6-13.1,0s-3.6,9.5,0,13.1L193,194.4z M193,194.4"/>
	</g>
</g>
</svg>
