<?xml version="1.0" encoding="iso-8859-1"?>
<!-- Generator: Adobe Illustrator 21.1.0, SVG Export Plug-In . SVG Version: 6.00 Build 0)  -->
<svg version="1.1" id="Layer_1" xmlns="http://www.w3.org/2000/svg" xmlns:xlink="http://www.w3.org/1999/xlink" x="0px" y="0px"
	 viewBox="0 0 800 800" style="enable-background:new 0 0 800 800;" xml:space="preserve">
<g>
	<path style="fill:#FFFFFF;" d="M590.753,244.181c-4.992-5.101-10.97-7.743-18.267-7.743h-344.75
		c-7.319,0-13.498,2.642-18.496,7.743c-4.878,4.992-7.52,11.171-7.52,18.272v275.094c0,7.096,2.528,13.389,7.52,18.49
		c4.883,4.992,11.177,7.526,18.496,7.526h344.75c7.296,0,13.366-2.533,18.267-7.526c4.992-5.101,7.526-11.394,7.526-18.49V262.453
		C598.279,255.352,595.636,249.173,590.753,244.181L590.753,244.181z M574.63,537.547c0,1.519-0.648,2.149-2.144,2.149h-344.75
		c-1.524,0-2.149-0.631-2.149-2.149V346.902H574.63V537.547z M574.63,323.26H225.588v-60.807c0-1.525,0.625-2.149,2.149-2.149
		h344.75c1.496,0,2.144,0.625,2.144,2.149V323.26z M574.63,323.26"/>
	<path style="fill:#FFFFFF;" d="M308.541,283.947c-4.614,4.385-4.499,12.019,0,16.971c4.946,4.499,12.581,4.608,16.994,0
		c4.608-4.837,4.499-12.472,0-16.971C321.007,279.424,313.373,279.31,308.541,283.947L308.541,283.947z M308.541,283.947"/>
	<path style="fill:#FFFFFF;" d="M279.098,283.947c-4.522,4.499-4.614,12.134,0,16.971c4.413,4.608,12.248,4.499,16.771,0
		c4.946-4.952,4.837-12.363,0-16.971C291.255,279.534,283.62,279.424,279.098,283.947L279.098,283.947z M279.098,283.947"/>
	<path style="fill:#FFFFFF;" d="M249.655,283.947c-4.522,4.499-4.631,12.134,0,16.971c4.413,4.608,12.249,4.499,16.771,0
		c4.924-4.952,4.838-12.363,0-16.971C261.788,279.534,254.154,279.424,249.655,283.947L249.655,283.947z M249.655,283.947"/>
</g>
</svg>
