<svg id="Layer_1" data-name="Layer 1" xmlns="http://www.w3.org/2000/svg" viewBox="0 0 264 196.32"><defs><style>.cls-1{fill:#fbfbfb;}</style></defs><title>logout-white</title><path class="cls-1" d="M42.15,110.68h139a12,12,0,0,0,0-24h-139L57.67,71.17a12,12,0,0,0-17-17l-36,36c-.28.29-.54.57-.79.88-.06.07-.11.15-.17.23-.18.23-.36.46-.53.71,0,.07-.08.15-.13.22a9.12,9.12,0,0,0-.47.79s0,.11-.09.17c-.14.29-.29.59-.42.89a.56.56,0,0,1,0,.12c-.13.32-.25.65-.35,1a.56.56,0,0,0,0,.12c-.09.34-.18.67-.25,1,0,.1,0,.21,0,.31a8.09,8.09,0,0,0-.12.86,9.39,9.39,0,0,0-.07,1.19,9.66,9.66,0,0,0,.07,1.2c0,.29.08.58.12.86,0,.11,0,.21,0,.31.07.34.16.68.25,1l0,.12q.17.51.36,1a.76.76,0,0,1,0,.11c.13.31.28.61.43.91,0,0,.05.1.08.16a9.12,9.12,0,0,0,.47.79c0,.07.08.14.13.21.17.25.35.48.53.72.06.08.11.16.17.23.25.3.51.59.79.87l36,36a12,12,0,1,0,17-17Zm0,0" transform="translate(-1.18 -0.52)"/><path class="cls-1" d="M167,.52A98.08,98.08,0,0,0,85.5,44a12,12,0,0,0,19.92,13.38,74.16,74.16,0,1,1,.1,82.77,12,12,0,0,0-19.89,13.43A98.16,98.16,0,1,0,167,.52Zm0,0" transform="translate(-1.18 -0.52)"/></svg>