<?xml version="1.0" encoding="utf-8"?>
<!-- Generator: Adobe Illustrator 21.1.0, SVG Export Plug-In . SVG Version: 6.00 Build 0)  -->
<svg version="1.1" id="Layer_1" xmlns="http://www.w3.org/2000/svg" xmlns:xlink="http://www.w3.org/1999/xlink" x="0px" y="0px"
	 viewBox="0 0 800 800" style="enable-background:new 0 0 800 800;" xml:space="preserve">
<style type="text/css">
	.st0{fill:#FFFFFF;}
</style>
<g>
	<path class="st0" d="M326.4,275H284c-6.6,0-12,5.4-12,12v42.4c0,6.6,5.4,12,12,12h42.4c6.6,0,12-5.4,12-12V287
		C338.4,280.4,333,275,326.4,275L326.4,275z M326.4,275"/>
	<path class="st0" d="M420,275h-42.4c-6.6,0-12,5.4-12,12v42.4c0,6.6,5.4,12,12,12H420c6.6,0,12-5.4,12-12V287
		C432,280.4,426.6,275,420,275L420,275z M420,275"/>
	<path class="st0" d="M514.4,275H472c-6.6,0-12,5.4-12,12v42.4c0,6.6,5.4,12,12,12h42.4c6.6,0,12-5.4,12-12V287
		C526.4,280.4,521,275,514.4,275L514.4,275z M514.4,275"/>
	<path class="st0" d="M326.4,366.2H284c-6.6,0-12,5.4-12,12v42.4c0,6.6,5.4,12,12,12h42.4c6.6,0,12-5.4,12-12v-42.4
		C338.4,371.6,333,366.2,326.4,366.2L326.4,366.2z M326.4,366.2"/>
	<path class="st0" d="M420,366.2h-42.4c-6.6,0-12,5.4-12,12v42.4c0,6.6,5.4,12,12,12H420c6.6,0,12-5.4,12-12v-42.4
		C432,371.6,426.6,366.2,420,366.2L420,366.2z M420,366.2"/>
	<path class="st0" d="M514.4,366.2H472c-6.6,0-12,5.4-12,12v42.4c0,6.6,5.4,12,12,12h42.4c6.6,0,12-5.4,12-12v-42.4
		C526.4,371.6,521,366.2,514.4,366.2L514.4,366.2z M514.4,366.2"/>
	<path class="st0" d="M326.4,458.2H284c-6.6,0-12,5.4-12,12v42.4c0,6.6,5.4,12,12,12h42.4c6.6,0,12-5.4,12-12v-42.4
		C338.4,463.6,333,458.2,326.4,458.2L326.4,458.2z M326.4,458.2"/>
	<path class="st0" d="M420,458.2h-42.4c-6.6,0-12,5.4-12,12v42.4c0,6.6,5.4,12,12,12H420c6.6,0,12-5.4,12-12v-42.4
		C432,463.6,426.6,458.2,420,458.2L420,458.2z M420,458.2"/>
	<path class="st0" d="M514.4,458.2H472c-6.6,0-12,5.4-12,12v42.4c0,6.6,5.4,12,12,12h42.4c6.6,0,12-5.4,12-12v-42.4
		C526.4,463.6,521,458.2,514.4,458.2L514.4,458.2z M514.4,458.2"/>
</g>
</svg>
