<svg id="Layer_1" data-name="Layer 1" xmlns="http://www.w3.org/2000/svg" viewBox="0 0 500.44 350.61"><defs><style>.cls-1,.cls-2{fill:#3fa9f5;}.cls-1{stroke:#fff;stroke-miterlimit:10;stroke-width:4.54px;}.cls-3,.cls-4{fill:#fff;}.cls-4{font-size:69.49px;font-family:BookmanOldStyle-Bold, Bookman Old Style;font-weight:700;}</style></defs><title>Portfolio-OS_Symbol-2_2</title><path class="cls-1" d="M442.19,237.15a56.69,56.69,0,0,0-9.9.94c-10.2-23.74-26.87-42.68-54.34-42.55-6.91,0-20.54,3.48-26.79,5.47a109.42,109.42,0,0,0-218.79,0A71,71,0,0,0,38,278.68c-.27,0-.52,0-.79,0a34.93,34.93,0,0,0,.33,69.86c2.39,0,401.24.44,405.19.42a55.89,55.89,0,1,0-.52-111.77Z" transform="translate(-0.16 -0.58)"/><rect class="cls-2" x="202.57" y="63.11" width="259.87" height="184.42" transform="translate(82.85 423.89) rotate(-72.21)"/><path class="cls-3" d="M380.6,307.22,292.88,280l-22.05-6.83-22.08-6.92-44.22-13.9-1.44-.45.46-1.47,19.5-62,19.72-61.9L282.24,2.74l.69-2.16,2.16.69,175.5,56.67,1.84.6-.59,1.83-40.6,123.92Zm0,0,38.77-124.51L458.16,59.19l1.25,2.42-175.7-56,2.84-1.47L246.63,127.77l-20,61.82-20.2,61.75-1-1.92,43.58,14.28,21.82,7.16,21.85,7.25Z" transform="translate(-0.16 -0.58)"/><path class="cls-3" d="M340.35,114.88l-28.86-9.16-29.2-9.43-.81-.26.27-.83c3.2-9.92,6.5-19.8,9.75-29.7l9.9-29.65.35-1.07,1.08.36L331.7,44.9c9.61,3.3,19.24,6.53,28.83,9.89l.84.29-.29.82L350.72,85.62Zm0,0,9.52-30,9.55-29.54.55,1.12c-9.67-3.12-19.3-6.35-29-9.52l-28.91-9.65,1.43-.71-10,29.61c-3.38,9.85-6.71,19.72-10.15,29.56l-.54-1.09,28.58,10Z" transform="translate(-0.16 -0.58)"/><path class="cls-3" d="M341.6,58.89a9,9,0,0,0-1-4.31,8.8,8.8,0,0,0-1.86-2.39,14.41,14.41,0,0,0-2.53-1.85A22.75,22.75,0,0,0,332,48.51a21.43,21.43,0,0,0-2.73-.7,16.85,16.85,0,0,0-3.4-.36,10.44,10.44,0,0,0-4.51.95,8.36,8.36,0,0,0-3.52,3.12,7.65,7.65,0,0,0-1,2.07c-.68,2.42-1.56,4.77-2.26,7.19a.51.51,0,0,1-.28.33,3.82,3.82,0,0,0-1.8,2.32c-.43,1.45-.9,2.9-1.31,4.36a3.1,3.1,0,0,0,.5,2.73.74.74,0,0,1,.18.51A19.78,19.78,0,0,0,312,75.1a22.68,22.68,0,0,0,.9,4.16,2.55,2.55,0,0,1,.1,2,28.8,28.8,0,0,0-1,3.19,4.48,4.48,0,0,1-1,1.74,4.54,4.54,0,0,1-2.55,1.3l-3.64.7-7.08,1.37a11.23,11.23,0,0,0-2.27.69l-.27-.09-3,8.46,42.61,14.57,2.62-9.19c.1,0,.21-.07.31-.13a11.25,11.25,0,0,0-1.45-1.79l-4.1-4c-1.51-1.47-3-2.93-4.53-4.39A4.8,4.8,0,0,1,326.4,92a4.58,4.58,0,0,1,0-3.22c.1-.29.22-.57.31-.86.29-.91.56-1.82.83-2.73a.73.73,0,0,1,.3-.41A21.26,21.26,0,0,0,332,81.29a19.83,19.83,0,0,0,2.26-2.74.45.45,0,0,1,.39-.23,3.49,3.49,0,0,0,3.18-2.49c.32-1,.65-2.08.94-3.13a9.9,9.9,0,0,0,.5-1.54A3.47,3.47,0,0,0,339,69a.43.43,0,0,1,0-.37c.6-1.78,1.07-3.61,1.7-5.38A13.52,13.52,0,0,0,341.6,58.89Z" transform="translate(-0.16 -0.58)"/><text class="cls-4" transform="translate(332.34 193.12) rotate(17.91)">{ }</text><polygon class="cls-3" points="273.95 120.82 333.24 137.46 331.85 141.78 273.95 120.82"/><polygon class="cls-3" points="264.43 151.18 323.72 167.82 322.33 172.14 264.43 151.18"/><polygon class="cls-3" points="254.91 181.55 314.2 198.19 312.81 202.51 254.91 181.55"/><path class="cls-2" d="M300.05,346.79a43.3,43.3,0,0,0,7.31-86A66.64,66.64,0,1,0,179,235.71" transform="translate(-0.16 -0.58)"/><path class="cls-3" d="M300.05,346.79a43.65,43.65,0,0,0,28.72-12.05,42.77,42.77,0,0,0,13-27.71,41.55,41.55,0,0,0-8.92-28.89,42.75,42.75,0,0,0-11.52-10.05A41.09,41.09,0,0,0,307,262.87l-2.54-.42,1-2.43a65.18,65.18,0,0,0-75.74-87.24,66.38,66.38,0,0,0-25.58,12.51,68.11,68.11,0,0,0-10.21,10.16A64.36,64.36,0,0,0,186,207.58a68.48,68.48,0,0,0-7,28.13,65.78,65.78,0,0,1,1.2-14.67,67,67,0,0,1,48.66-51.63,68.19,68.19,0,0,1,57.56,10.85,69.7,69.7,0,0,1,19.84,22.67,68.61,68.61,0,0,1,8.13,29,67.68,67.68,0,0,1-5.08,29.66l-1.58-2.85a45.2,45.2,0,0,1,28,17.15,44.15,44.15,0,0,1-19.81,68.32A42.84,42.84,0,0,1,300.05,346.79Z" transform="translate(-0.16 -0.58)"/></svg>