<?xml version="1.0" encoding="utf-8"?>
<!-- Generator: Adobe Illustrator 22.1.0, SVG Export Plug-In . SVG Version: 6.00 Build 0)  -->
<svg version="1.1" id="Layer_1" xmlns="http://www.w3.org/2000/svg" xmlns:xlink="http://www.w3.org/1999/xlink" x="0px" y="0px"
	 viewBox="0 0 50 50" style="enable-background:new 0 0 50 50;" xml:space="preserve">
<style type="text/css">
	.st0{clip-path:url(#SVGID_2_);fill:#E7ECED;}
	.st1{clip-path:url(#SVGID_2_);fill:#556080;}
</style>
<g>
	<g>
		<defs>
			<rect id="SVGID_1_" x="0.2" width="49.8" height="51"/>
		</defs>
		<clipPath id="SVGID_2_">
			<use xlink:href="#SVGID_1_"  style="overflow:visible;"/>
		</clipPath>
		<path class="st0" d="M17.4,39.2l-7.3,4c-0.4,0.2-0.8,0.5-1.2,0.8c4.3,3.6,9.8,5.8,15.8,5.8c6,0,11.5-2.1,15.7-5.7
			c-0.4-0.3-0.8-0.6-1.3-0.9l-7.9-3.9c-1-0.5-1.7-1.5-1.7-2.7v-3.1c0.2-0.2,0.5-0.6,0.7-1c1.1-1.5,1.9-3.2,2.4-4.9
			c1-0.3,1.8-1.2,1.8-2.3v-3.3c0-0.7-0.3-1.4-0.8-1.8v-4.8c0,0,1-7.4-9.1-7.4c-10,0-9,7.4-9,7.4v4.8c-0.5,0.5-0.8,1.1-0.8,1.8v3.3
			c0,0.9,0.5,1.6,1.1,2.1c0.8,3.6,3,6.2,3,6.2v3C19,37.7,18.4,38.7,17.4,39.2L17.4,39.2z M17.4,39.2"/>
		<path class="st1" d="M25.2,0.7C11.6,0.4,0.4,11.2,0.2,24.8C0,32.5,3.5,39.5,8.9,44.1c0.4-0.3,0.7-0.6,1.2-0.8l7.3-4
			c1-0.5,1.6-1.5,1.6-2.6v-3c0,0-2.2-2.6-3-6.2c-0.7-0.4-1.1-1.2-1.1-2.1v-3.3c0-0.7,0.3-1.4,0.8-1.8v-4.8c0,0-1-7.4,9.1-7.4
			c10,0,9.1,7.4,9.1,7.4v4.8c0.5,0.5,0.8,1.1,0.8,1.8v3.3c0,1.1-0.7,2-1.7,2.3c-0.6,1.7-1.4,3.4-2.4,4.9c-0.3,0.4-0.5,0.7-0.7,1v3.1
			c0,1.1,0.6,2.2,1.7,2.7l7.9,3.9c0.5,0.2,0.9,0.5,1.3,0.9c5.3-4.4,8.7-11,8.9-18.5C49.6,12.1,38.8,0.9,25.2,0.7L25.2,0.7z
			 M25.2,0.7"/>
	</g>
</g>
</svg>
