<?xml version="1.0" encoding="iso-8859-1"?>
<!-- Generator: Adobe Illustrator 21.1.0, SVG Export Plug-In . SVG Version: 6.00 Build 0)  -->
<svg version="1.1" id="Layer_1" xmlns="http://www.w3.org/2000/svg" xmlns:xlink="http://www.w3.org/1999/xlink" x="0px" y="0px"
	 viewBox="0 0 800 800" style="enable-background:new 0 0 800 800;" xml:space="preserve">
<g>
	<path style="fill:#FFFFFF;" d="M689.706,103H195.13c-6.784,0-12.294,5.501-12.294,12.294v35.641
		c0,6.781,5.511,12.292,12.294,12.292c6.791,0,12.292-5.511,12.292-12.292v-23.349h469.993v469.993h-23.349
		c-6.781,0-12.292,5.5-12.292,12.292c0,6.783,5.511,12.294,12.292,12.294h35.641c6.794,0,12.294-5.511,12.294-12.294V115.294
		C702,108.501,696.499,103,689.706,103L689.706,103z M689.706,103"/>
	<path style="fill:#FFFFFF;" d="M604.873,187.836H110.294c-6.794,0-12.294,5.511-12.294,12.292v494.578
		c0,6.794,5.5,12.294,12.294,12.294h494.578c6.781,0,12.292-5.501,12.292-12.294V200.127
		C617.164,193.346,611.654,187.836,604.873,187.836L604.873,187.836z M592.578,682.411h-469.99v-469.99h469.99V682.411z
		 M592.578,682.411"/>
</g>
</svg>
