<?xml version="1.0" encoding="iso-8859-1"?>
<!-- Generator: Adobe Illustrator 16.0.0, SVG Export Plug-In . SVG Version: 6.00 Build 0)  -->
<!DOCTYPE svg PUBLIC "-//W3C//DTD SVG 1.1//EN" "http://www.w3.org/Graphics/SVG/1.1/DTD/svg11.dtd">
<svg xmlns="http://www.w3.org/2000/svg" xmlns:xlink="http://www.w3.org/1999/xlink" version="1.1" id="Capa_1" x="0px" y="0px" width="512px" height="512px" viewBox="0 0 378.017 378.016" style="enable-background:new 0 0 378.017 378.016;" xml:space="preserve">
<g>
	<path d="M348.386,0.175H29.625C13.292,0.175,0,13.461,0,29.795v318.428c0,16.332,13.292,29.618,29.625,29.618h318.765   c16.336,0,29.626-13.291,29.626-29.618V29.795C378.011,13.461,364.719,0.175,348.386,0.175z M328.309,33.891   c7.01,0,12.695,5.682,12.695,12.698c0,7.015-5.686,12.698-12.695,12.698c-7.014,0-12.7-5.683-12.7-12.698   C315.608,39.573,321.295,33.891,328.309,33.891z M282.816,33.891c7.014,0,12.704,5.682,12.704,12.698   c0,7.015-5.69,12.698-12.704,12.698c-7.004,0-12.691-5.683-12.691-12.698C270.125,39.573,275.812,33.891,282.816,33.891z    M344.155,343.988h-310.3V90.8h310.306v253.188H344.155z M180.663,185.495L78.474,232.331v-22.562l78.997-33.85v-0.426   l-78.997-33.855v-22.558l102.189,46.832V185.495z M299.548,224.614H193.09v-10.637h106.458V224.614z" fill="#91DC5A"/>
</g>
<g>
</g>
<g>
</g>
<g>
</g>
<g>
</g>
<g>
</g>
<g>
</g>
<g>
</g>
<g>
</g>
<g>
</g>
<g>
</g>
<g>
</g>
<g>
</g>
<g>
</g>
<g>
</g>
<g>
</g>
</svg>
