<?xml version="1.0" encoding="utf-8"?>
<!-- Generator: Adobe Illustrator 22.1.0, SVG Export Plug-In . SVG Version: 6.00 Build 0)  -->
<svg version="1.1" id="Layer_1" xmlns="http://www.w3.org/2000/svg" xmlns:xlink="http://www.w3.org/1999/xlink" x="0px" y="0px"
	 viewBox="0 0 100 100" style="enable-background:new 0 0 100 100;" xml:space="preserve">
<style type="text/css">
	.st0{fill:#BF9541;}
	.st1{fill:#EFEFEF;}
	.st2{fill:#E6E6E6;}
	.st3{fill:#8D6E63;}
	.st4{fill:#6D4C41;}
	.st5{fill:#CCCCCC;}
	.st6{fill:#F9F6ED;}
	.st7{fill:#EFECE4;}
	.st8{fill:#FC7777;}
	.st9{fill:#F75C5C;}
	.st10{fill:#666666;}
	.st11{fill:#AD8338;}
	.st12{fill:#E2D9C7;}
	.st13{fill:#70B5E8;}
	.st14{fill:#52A5D8;}
</style>
<g>
	<g>
		<path class="st0" d="M92.6,24.5c-0.2,0-0.5-0.1-0.7-0.2L52.1,4.5c-0.7-0.4-1-1.3-0.6-2c0.4-0.7,1.3-1,2-0.6l39.8,19.8
			C94.7,22.4,94.2,24.5,92.6,24.5z"/>
		<path class="st0" d="M8.2,24.3L48,4.5c0.7-0.4,1-1.3,0.6-2c-0.4-0.7-1.3-1-2-0.6L6.7,21.7c-0.7,0.4-1,1.3-0.6,2
			C6.5,24.5,7.4,24.7,8.2,24.3z"/>
	</g>
	<rect x="4.5" y="23.2" class="st1" width="91.1" height="74"/>
	<rect x="4.5" y="23.2" class="st2" width="6" height="74"/>
	<g>
		<path class="st3" d="M100,23.2c0-1.5-1.2-2.7-2.7-2.7H2.8c-1.5,0-2.7,1.2-2.7,2.7c0,1.5,1.2,2.7,2.7,2.7h94.5
			C98.7,25.9,100,24.7,100,23.2z"/>
		<path class="st3" d="M100,97.2c0-1.5-1.2-2.7-2.7-2.7H2.8c-1.5,0-2.7,1.2-2.7,2.7c0,1.5,1.2,2.7,2.7,2.7h94.5
			C98.7,99.9,100,98.7,100,97.2z"/>
	</g>
	<g>
		<path class="st4" d="M8.2,23.2c0-1.5,1.2-2.7,2.7-2.7H2.8c-1.5,0-2.7,1.2-2.7,2.7c0,1.5,1.2,2.7,2.7,2.7h8.1
			C9.4,25.9,8.2,24.7,8.2,23.2z"/>
		<path class="st4" d="M8.2,97.3c0-1.5,1.2-2.7,2.7-2.7H2.8c-1.5,0-2.7,1.2-2.7,2.7s1.2,2.7,2.7,2.7h8.1C9.4,100,8.2,98.8,8.2,97.3z
			"/>
	</g>
	<circle class="st2" cx="50" cy="3.9" r="3.9"/>
	<path class="st5" d="M50,3.9c-0.7-1.2-0.7-2.7,0-3.9c-0.7,0-1.3,0.2-1.9,0.5c-1.9,1.1-2.5,3.4-1.4,5.3c1.1,1.9,3.4,2.5,5.3,1.4
		c0.6-0.4,1.1-0.9,1.4-1.4C52,5.8,50.7,5.1,50,3.9z"/>
	<path class="st6" d="M20.1,76.9c0.3-0.2,0.6-0.2,0.8,0l1.9,1.3c0.4,0.3,1,0.3,1.5,0l1.9-1.3c0.3-0.2,0.6-0.2,0.8,0l2,1.3
		c0.4,0.2,0.9,0.2,1.2,0l2-1.3c0.3-0.2,0.6-0.2,0.8,0l2,1.3c0.4,0.3,0.9,0.3,1.3,0l2-1.3c0.3-0.2,0.6-0.2,0.8,0L41,78
		c0.4,0.3,0.9,0,0.9-0.5V51.3c0-0.7-0.5-1.2-1.2-1.2H18.8c-0.7,0-1.2,0.5-1.2,1.2v26.2c0,0.5,0.5,0.7,0.9,0.5L20.1,76.9z"/>
	<path class="st7" d="M23.6,77.9v-0.4V51.7v-0.4c0-0.7,0.5-1.2,1.2-1.2h-6c-0.7,0-1.2,0.5-1.2,1.2v26.2c0,0.5,0.5,0.7,0.9,0.5
		l1.7-1.1c0.3-0.2,0.6-0.2,0.8,0l1.9,1.3c0.3,0.2,0.6,0.3,0.9,0.2C23.7,78.2,23.6,78.1,23.6,77.9z"/>
	<path id="SVGCleanerId_0" class="st8" d="M17.6,51.3v4.2h24.3v-4.2c0-0.7-0.5-1.2-1.2-1.2H18.8C18.1,50.1,17.6,50.6,17.6,51.3z"/>
	<g>
		<path id="SVGCleanerId_0_1_" class="st8" d="M17.6,51.3v4.2h24.3v-4.2c0-0.7-0.5-1.2-1.2-1.2H18.8C18.1,50.1,17.6,50.6,17.6,51.3z
			"/>
	</g>
	<path class="st9" d="M23.6,51.7v-0.4c0-0.7,0.5-1.2,1.2-1.2h-6c-0.2,0-0.5,0.1-0.7,0.2c-0.1,0.1-0.2,0.2-0.3,0.3
		c-0.1,0.1-0.1,0.2-0.2,0.3c0,0.1-0.1,0.2-0.1,0.4v4.2h6C23.6,55.5,23.6,51.7,23.6,51.7z"/>
	<path class="st10" d="M29.7,53.3c-0.8,0-1.5-0.7-1.5-1.5v-5c0-0.8,0.7-1.5,1.5-1.5s1.5,0.7,1.5,1.5v5
		C31.2,52.6,30.5,53.3,29.7,53.3z"/>
	<path class="st6" d="M63.3,76.8c0.2-0.2,0.5-0.4,0.8-0.3l2.2,0.5c0.5,0.1,1.1-0.1,1.4-0.5l1.3-1.8c0.2-0.2,0.5-0.4,0.8-0.3l2.3,0.5
		c0.4,0.1,0.9-0.1,1.2-0.4l1.4-1.9c0.2-0.2,0.5-0.4,0.8-0.3l2.3,0.5c0.5,0.1,0.9-0.1,1.2-0.4l1.4-1.9c0.2-0.2,0.5-0.4,0.8-0.3l2,0.5
		c0.4,0.1,0.8-0.3,0.7-0.8l-9.2-24.5c-0.2-0.6-0.9-0.9-1.6-0.7l-20.5,7.6c-0.6,0.2-0.9,0.9-0.7,1.6l9.1,24.5c0.2,0.4,0.7,0.5,1,0.1
		L63.3,76.8z"/>
	<path class="st7" d="M67,76.7l-9.5-25.5c-0.1-0.2-0.1-0.5,0-0.7l-4.7,1.8c-0.6,0.2-0.9,0.9-0.7,1.6l9.1,24.5c0.2,0.4,0.7,0.5,1,0.1
		l1.2-1.6c0.2-0.2,0.5-0.4,0.8-0.3l2.2,0.5c0.3,0.1,0.6,0,0.9-0.1C67.1,76.9,67,76.8,67,76.7z"/>
	<path class="st0" d="M52,53.8l1.5,4l22.7-8.5l-1.5-4c-0.2-0.6-0.9-0.9-1.6-0.7l-20.5,7.6C52.1,52.5,51.8,53.2,52,53.8z"/>
	<path class="st11" d="M57.5,51.2c-0.1-0.2-0.1-0.5,0-0.7l-4.7,1.8c0,0,0,0-0.1,0c-0.6,0.3-0.9,0.9-0.6,1.5l1.5,4l5.7-2.1L57.5,51.2
		z"/>
	<path class="st10" d="M62.1,50.5l-1.7-4.6c-0.3-0.8,0.1-1.6,0.9-1.9c0.8-0.3,1.6,0.1,1.9,0.9l1.7,4.6c0.3,0.8-0.1,1.6-0.9,1.9
		C63.3,51.7,62.4,51.3,62.1,50.5z"/>
	<g>
		<path class="st12" d="M35.1,64.2H24.3c-0.8,0-1.5-0.7-1.5-1.5c0-0.8,0.7-1.5,1.5-1.5h10.8c0.8,0,1.5,0.7,1.5,1.5
			S36,64.2,35.1,64.2z"/>
		<path class="st12" d="M35.1,70.5H24.3c-0.8,0-1.5-0.7-1.5-1.5c0-0.8,0.7-1.5,1.5-1.5h10.8c0.8,0,1.5,0.7,1.5,1.5
			S36,70.5,35.1,70.5z"/>
	</g>
	<path class="st13" d="M73.1,66.5L67,68.9c-0.7,0.3-1.5-0.3-1.5-1.1c0,0,0.6-7.3,0.6-7.3c0.1-0.9,1.1-1.3,1.8-0.7l5.5,4.8
		C74,65.2,73.8,66.2,73.1,66.5z"/>
	<path class="st14" d="M70.8,62.3l-2.9-2.6c-0.7-0.6-1.7-0.2-1.8,0.7c0,0-0.6,7.3-0.6,7.3c-0.1,0.8,0.7,1.4,1.5,1.1l3.4-1.4
		C70.4,66.7,70.7,64.1,70.8,62.3z"/>
</g>
</svg>
